# xmcd
#
# Track frame offsets:
#	150
#	12332
#	27075
#	43252
#	56740
#	69410
#	83270
#	96705
#	110772
#	125350
#	145687
#	157762
#	172430
#	185097
#	199912
#	209820
#	221132
#	229345
#	249347
#	261730
#
# Disc length: 3700 seconds
#
# Revision: 3
# Processed by: cddbd v1.5.2PL0 Copyright (c) Steve Scherf et al.
# Submitted via: audiograbber 1.83.01
#
DISCID=390e7214
DTITLE=Shirley Bassey - The Shirley Bassey Singles Album
DYEAR=1992
DGENRE=Easy Listening
TTITLE0=Diamonds Are Forever
TTITLE1=The Fool On The Hill
TTITLE2=Something
TTITLE3=As Long As He Needs Me
TTITLE4=Somewhere
TTITLE5=Let's Fall In Love
TTITLE6=The Lady Is A Tramp
TTITLE7=The Look Of Love
TTITLE8=Where Do I Begin
TTITLE9=If You Go Away
TTITLE10=I Who Have Nothing
TTITLE11=What Kind Of Fool Am I
TTITLE12=GoldFinger
TTITLE13=It Must Be Him
TTITLE14=Who Can I Turn To
TTITLE15=Softly As I Leave You
TTITLE16=Big Spender
TTITLE17=And I Love You So
TTITLE18=For All We Know
TTITLE19=The Party's Over
EXTD=
EXTT0=
EXTT1=
EXTT2=
EXTT3=
EXTT4=
EXTT5=
EXTT6=
EXTT7=
EXTT8=
EXTT9=
EXTT10=
EXTT11=
EXTT12=
EXTT13=
EXTT14=
EXTT15=
EXTT16=
EXTT17=
EXTT18=
EXTT19=
PLAYORDER=
